<svg width="39" height="34" viewBox="0 0 39 34" fill="none" xmlns="http://www.w3.org/2000/svg">
<path opacity="0.1" d="M10.7662 21.7949C11.5786 21.7573 12.3903 21.884 13.1526 22.1673C13.9149 22.4507 14.6122 22.8849 15.2028 23.444C15.7672 24.0189 16.2071 24.704 16.495 25.4565C16.783 26.2089 16.9127 27.0126 16.8762 27.8174C16.9321 28.6758 16.7907 29.5356 16.4629 30.331C16.135 31.1263 15.6294 31.836 14.9848 32.4058C13.4326 33.5489 11.5265 34.1075 9.60256 33.9829C8.24072 34.04 6.88561 33.7628 5.65566 33.1755C4.4257 32.5882 3.35834 31.7087 2.54684 30.6138C0.849386 28.3665 0.000659571 25.188 0.000659571 21.0783C-0.0283032 17.2791 0.89701 13.5335 2.69179 10.1846C4.79377 6.44553 7.46906 3.05901 10.6202 0.148378C10.6798 0.0962995 10.749 0.0565098 10.824 0.0312957C10.899 0.00608172 10.9782 -0.00405787 11.0571 0.00146292C11.2052 0.0040767 11.3501 0.0450453 11.4777 0.120367C11.6052 0.195689 11.7111 0.30279 11.7849 0.431216C11.9788 0.717717 11.9788 0.956579 11.7849 1.1478C9.50807 3.33566 7.70179 5.96498 6.47656 8.87486C5.25132 11.7847 4.63291 14.914 4.65916 18.0711C4.65916 20.7475 5.144 22.7071 6.11369 23.9497C6.98474 22.5132 8.53557 21.7949 10.7662 21.7949ZM32.8781 21.7949C33.6905 21.7573 34.5022 21.884 35.2645 22.1673C36.0268 22.4507 36.7241 22.8849 37.3146 23.444C37.8791 24.0189 38.319 24.704 38.6069 25.4565C38.8948 26.2089 39.0246 27.0126 38.9881 27.8174C39.044 28.6758 38.9026 29.5356 38.5748 30.331C38.2469 31.1263 37.7413 31.836 37.0967 32.4058C35.5444 33.5489 33.6383 34.1075 31.7144 33.9829C30.3526 34.04 28.9975 33.7628 27.7675 33.1755C26.5376 32.5882 25.4702 31.7087 24.6587 30.6138C22.9613 28.3678 22.1125 25.1896 22.1125 21.0793C22.0836 17.2801 23.0089 13.5345 24.8037 10.1856C26.9056 6.44653 29.5809 3.06001 32.7321 0.14938C32.792 0.0980123 32.8613 0.0589458 32.9363 0.034422C33.0113 0.00989822 33.0903 0.000397291 33.169 0.00646111C33.3171 0.00907489 33.462 0.0500435 33.5896 0.125365C33.7171 0.200687 33.8229 0.307788 33.8967 0.436214C34.0907 0.722715 34.0907 0.961577 33.8967 1.1528C31.62 3.33982 29.8135 5.96822 28.5878 8.8772C27.3621 11.7862 26.7428 14.9146 26.768 18.0711C26.768 20.7475 27.2529 22.7071 28.2226 23.9497C29.0956 22.5132 30.6474 21.7949 32.8781 21.7949Z" fill="#121212"/>
</svg>
